<mxfile host="app.diagrams.net" modified="2023-11-02T03:26:37.977Z" agent="Mozilla/5.0 (Windows NT 10.0; Win64; x64) AppleWebKit/537.36 (KHTML, like Gecko) Chrome/118.0.0.0 Safari/537.36" etag="WXkwGuc9dMwFECLT9z2S" version="22.0.8" type="device">
  <diagram name="ページ1" id="XBwVuHDo05YGSn4OJ-u0">
    <mxGraphModel dx="1247" dy="2376" grid="1" gridSize="10" guides="1" tooltips="1" connect="1" arrows="1" fold="1" page="1" pageScale="1" pageWidth="1169" pageHeight="1654" math="0" shadow="0">
      <root>
        <mxCell id="0" />
        <mxCell id="1" parent="0" />
        <mxCell id="DY4rHuwdRVttyrDEikKL-1" value="ホームページ" style="rounded=0;whiteSpace=wrap;html=1;align=left;verticalAlign=top;" parent="1" vertex="1">
          <mxGeometry x="40" y="80" width="180" height="110" as="geometry" />
        </mxCell>
        <mxCell id="DY4rHuwdRVttyrDEikKL-2" value="三　新規登録&lt;br&gt;　　 ログイン&amp;nbsp;" style="rounded=1;whiteSpace=wrap;html=1;" parent="1" vertex="1">
          <mxGeometry x="200" y="80" width="90" height="60" as="geometry" />
        </mxCell>
        <mxCell id="DY4rHuwdRVttyrDEikKL-4" style="rounded=0;orthogonalLoop=1;jettySize=auto;html=1;" parent="1" source="DY4rHuwdRVttyrDEikKL-3" target="DY4rHuwdRVttyrDEikKL-5" edge="1">
          <mxGeometry relative="1" as="geometry">
            <mxPoint x="240" y="260" as="targetPoint" />
          </mxGeometry>
        </mxCell>
        <mxCell id="DY4rHuwdRVttyrDEikKL-7" style="rounded=0;orthogonalLoop=1;jettySize=auto;html=1;" parent="1" source="DY4rHuwdRVttyrDEikKL-3" target="DY4rHuwdRVttyrDEikKL-6" edge="1">
          <mxGeometry relative="1" as="geometry" />
        </mxCell>
        <mxCell id="DY4rHuwdRVttyrDEikKL-3" value="イベント参加" style="ellipse;whiteSpace=wrap;html=1;" parent="1" vertex="1">
          <mxGeometry x="75" y="130" width="110" height="50" as="geometry" />
        </mxCell>
        <mxCell id="DY4rHuwdRVttyrDEikKL-8" style="rounded=0;orthogonalLoop=1;jettySize=auto;html=1;" parent="1" source="DY4rHuwdRVttyrDEikKL-5" target="DY4rHuwdRVttyrDEikKL-6" edge="1">
          <mxGeometry relative="1" as="geometry" />
        </mxCell>
        <mxCell id="DY4rHuwdRVttyrDEikKL-10" value="" style="edgeStyle=orthogonalEdgeStyle;rounded=0;orthogonalLoop=1;jettySize=auto;html=1;" parent="1" source="DY4rHuwdRVttyrDEikKL-5" target="DY4rHuwdRVttyrDEikKL-9" edge="1">
          <mxGeometry relative="1" as="geometry" />
        </mxCell>
        <mxCell id="DY4rHuwdRVttyrDEikKL-5" value="ログイン&lt;br&gt;&lt;br&gt;新規登録はこちら" style="rounded=0;whiteSpace=wrap;html=1;align=left;" parent="1" vertex="1">
          <mxGeometry x="250" y="250" width="120" height="60" as="geometry" />
        </mxCell>
        <mxCell id="DY4rHuwdRVttyrDEikKL-6" value="イベント参加" style="rounded=0;whiteSpace=wrap;html=1;align=left;" parent="1" vertex="1">
          <mxGeometry x="40" y="350" width="120" height="60" as="geometry" />
        </mxCell>
        <mxCell id="DY4rHuwdRVttyrDEikKL-11" style="rounded=0;orthogonalLoop=1;jettySize=auto;html=1;entryX=0.25;entryY=1;entryDx=0;entryDy=0;" parent="1" source="DY4rHuwdRVttyrDEikKL-9" target="DY4rHuwdRVttyrDEikKL-5" edge="1">
          <mxGeometry relative="1" as="geometry" />
        </mxCell>
        <mxCell id="DY4rHuwdRVttyrDEikKL-9" value="新規登録" style="rounded=0;whiteSpace=wrap;html=1;align=left;" parent="1" vertex="1">
          <mxGeometry x="250" y="390" width="120" height="60" as="geometry" />
        </mxCell>
        <mxCell id="DY4rHuwdRVttyrDEikKL-12" value="" style="endArrow=classic;html=1;rounded=0;entryX=1;entryY=0.5;entryDx=0;entryDy=0;" parent="1" target="DY4rHuwdRVttyrDEikKL-9" edge="1">
          <mxGeometry width="50" height="50" relative="1" as="geometry">
            <mxPoint x="300" y="100" as="sourcePoint" />
            <mxPoint x="460" y="320" as="targetPoint" />
            <Array as="points">
              <mxPoint x="500" y="270" />
            </Array>
          </mxGeometry>
        </mxCell>
        <mxCell id="DY4rHuwdRVttyrDEikKL-13" value="" style="endArrow=classic;html=1;rounded=0;entryX=0.5;entryY=0;entryDx=0;entryDy=0;" parent="1" target="DY4rHuwdRVttyrDEikKL-5" edge="1">
          <mxGeometry width="50" height="50" relative="1" as="geometry">
            <mxPoint x="260" y="150" as="sourcePoint" />
            <mxPoint x="340" y="180" as="targetPoint" />
          </mxGeometry>
        </mxCell>
        <mxCell id="DY4rHuwdRVttyrDEikKL-14" value="ホームページ" style="rounded=0;whiteSpace=wrap;html=1;align=left;verticalAlign=top;" parent="1" vertex="1">
          <mxGeometry x="709" y="60" width="180" height="140" as="geometry" />
        </mxCell>
        <mxCell id="DY4rHuwdRVttyrDEikKL-28" style="rounded=0;orthogonalLoop=1;jettySize=auto;html=1;" parent="1" source="DY4rHuwdRVttyrDEikKL-15" target="DY4rHuwdRVttyrDEikKL-27" edge="1">
          <mxGeometry relative="1" as="geometry" />
        </mxCell>
        <mxCell id="DY4rHuwdRVttyrDEikKL-15" value="三　&amp;nbsp;ログアウト&lt;br&gt;　　ユーザー" style="rounded=1;whiteSpace=wrap;html=1;" parent="1" vertex="1">
          <mxGeometry x="869" y="90" width="90" height="60" as="geometry" />
        </mxCell>
        <mxCell id="DY4rHuwdRVttyrDEikKL-17" style="rounded=0;orthogonalLoop=1;jettySize=auto;html=1;" parent="1" source="DY4rHuwdRVttyrDEikKL-18" target="DY4rHuwdRVttyrDEikKL-22" edge="1">
          <mxGeometry relative="1" as="geometry" />
        </mxCell>
        <mxCell id="DY4rHuwdRVttyrDEikKL-18" value="グループ参加" style="ellipse;whiteSpace=wrap;html=1;" parent="1" vertex="1">
          <mxGeometry x="744" y="140" width="110" height="50" as="geometry" />
        </mxCell>
        <mxCell id="DY4rHuwdRVttyrDEikKL-35" value="" style="edgeStyle=orthogonalEdgeStyle;rounded=0;orthogonalLoop=1;jettySize=auto;html=1;" parent="1" source="DY4rHuwdRVttyrDEikKL-22" target="DY4rHuwdRVttyrDEikKL-34" edge="1">
          <mxGeometry relative="1" as="geometry" />
        </mxCell>
        <mxCell id="DY4rHuwdRVttyrDEikKL-22" value="イベント参加" style="rounded=0;whiteSpace=wrap;html=1;align=left;verticalAlign=top;" parent="1" vertex="1">
          <mxGeometry x="640" y="220" width="219" height="110" as="geometry" />
        </mxCell>
        <mxCell id="939VMe6MDlw07Kl8Ivs7-82" style="edgeStyle=orthogonalEdgeStyle;rounded=0;orthogonalLoop=1;jettySize=auto;html=1;" parent="1" source="DY4rHuwdRVttyrDEikKL-24" target="939VMe6MDlw07Kl8Ivs7-81" edge="1">
          <mxGeometry relative="1" as="geometry" />
        </mxCell>
        <mxCell id="DY4rHuwdRVttyrDEikKL-24" value="ログアウトしますか？&lt;br&gt;はい　いいえ" style="rounded=0;whiteSpace=wrap;html=1;align=center;verticalAlign=top;" parent="1" vertex="1">
          <mxGeometry x="1040" y="80" width="130" height="60" as="geometry" />
        </mxCell>
        <mxCell id="DY4rHuwdRVttyrDEikKL-26" value="" style="endArrow=classic;html=1;rounded=0;" parent="1" target="DY4rHuwdRVttyrDEikKL-24" edge="1">
          <mxGeometry width="50" height="50" relative="1" as="geometry">
            <mxPoint x="970" y="110" as="sourcePoint" />
            <mxPoint x="979" y="260" as="targetPoint" />
          </mxGeometry>
        </mxCell>
        <mxCell id="DY4rHuwdRVttyrDEikKL-27" value="ユーザー情報確認&lt;br&gt;" style="rounded=0;whiteSpace=wrap;html=1;align=left;verticalAlign=top;" parent="1" vertex="1">
          <mxGeometry x="900" y="220" width="260" height="110" as="geometry" />
        </mxCell>
        <mxCell id="DY4rHuwdRVttyrDEikKL-29" value="登録情報表示" style="rounded=0;whiteSpace=wrap;html=1;" parent="1" vertex="1">
          <mxGeometry x="1020" y="250" width="120" height="60" as="geometry" />
        </mxCell>
        <mxCell id="DY4rHuwdRVttyrDEikKL-30" value="情報の変更&lt;br&gt;ーーーーーーー&lt;br&gt;情報の削除" style="rounded=0;whiteSpace=wrap;html=1;" parent="1" vertex="1">
          <mxGeometry x="900" y="254" width="91" height="60" as="geometry" />
        </mxCell>
        <mxCell id="DY4rHuwdRVttyrDEikKL-31" value="グループID：" style="rounded=1;whiteSpace=wrap;html=1;align=left;" parent="1" vertex="1">
          <mxGeometry x="689.5" y="250" width="120" height="35" as="geometry" />
        </mxCell>
        <mxCell id="DY4rHuwdRVttyrDEikKL-33" value="参加" style="rounded=1;whiteSpace=wrap;html=1;" parent="1" vertex="1">
          <mxGeometry x="719.5" y="290" width="60" height="30" as="geometry" />
        </mxCell>
        <mxCell id="DY4rHuwdRVttyrDEikKL-34" value="イベント" style="rounded=0;whiteSpace=wrap;html=1;align=left;verticalAlign=top;" parent="1" vertex="1">
          <mxGeometry x="640" y="410" width="219" height="170" as="geometry" />
        </mxCell>
        <mxCell id="DY4rHuwdRVttyrDEikKL-38" value="スキーなら" style="ellipse;whiteSpace=wrap;html=1;" parent="1" vertex="1">
          <mxGeometry x="575" y="380" width="70" height="55" as="geometry" />
        </mxCell>
        <mxCell id="DY4rHuwdRVttyrDEikKL-39" value="○○スキー場" style="rounded=0;whiteSpace=wrap;html=1;" parent="1" vertex="1">
          <mxGeometry x="680" y="435" width="120" height="30" as="geometry" />
        </mxCell>
        <mxCell id="DY4rHuwdRVttyrDEikKL-40" value="三　&amp;nbsp;ログアウト&lt;br&gt;　　ユーザー&lt;br&gt;　　グループ&lt;br&gt;　マップ&lt;br&gt;　連絡&lt;br&gt;　　緊急通知" style="rounded=1;whiteSpace=wrap;html=1;" parent="1" vertex="1">
          <mxGeometry x="830" y="410" width="90" height="110" as="geometry" />
        </mxCell>
        <mxCell id="DY4rHuwdRVttyrDEikKL-41" value="予定 oo~oo&lt;br&gt;&amp;nbsp; &amp;nbsp; &amp;nbsp; &amp;nbsp;:&lt;br&gt;&amp;nbsp; &amp;nbsp; &amp;nbsp; &amp;nbsp;:&lt;br&gt;&lt;br&gt;&lt;br&gt;期限 oo/oo oo:oo" style="rounded=0;whiteSpace=wrap;html=1;" parent="1" vertex="1">
          <mxGeometry x="680" y="470" width="120" height="100" as="geometry" />
        </mxCell>
        <mxCell id="DY4rHuwdRVttyrDEikKL-43" value="" style="rounded=0;whiteSpace=wrap;html=1;" parent="1" vertex="1">
          <mxGeometry x="1540" y="480" width="510" height="330" as="geometry" />
        </mxCell>
        <mxCell id="DY4rHuwdRVttyrDEikKL-44" value="ツアー旅行&lt;br&gt;スキー" style="ellipse;whiteSpace=wrap;html=1;" parent="1" vertex="1">
          <mxGeometry x="1520" y="455" width="120" height="80" as="geometry" />
        </mxCell>
        <mxCell id="DY4rHuwdRVttyrDEikKL-46" value="イベント" style="rounded=1;whiteSpace=wrap;html=1;verticalAlign=top;" parent="1" vertex="1">
          <mxGeometry x="1590" y="535" width="410" height="225" as="geometry" />
        </mxCell>
        <mxCell id="DY4rHuwdRVttyrDEikKL-47" value="グループ" style="rounded=1;whiteSpace=wrap;html=1;" parent="1" vertex="1">
          <mxGeometry x="1800" y="660" width="160" height="80" as="geometry" />
        </mxCell>
        <mxCell id="DY4rHuwdRVttyrDEikKL-48" value="グループ" style="rounded=1;whiteSpace=wrap;html=1;" parent="1" vertex="1">
          <mxGeometry x="1620" y="557.5" width="100" height="72.5" as="geometry" />
        </mxCell>
        <mxCell id="DY4rHuwdRVttyrDEikKL-49" value="グループ" style="rounded=1;whiteSpace=wrap;html=1;" parent="1" vertex="1">
          <mxGeometry x="1890" y="577.5" width="80" height="60" as="geometry" />
        </mxCell>
        <mxCell id="DY4rHuwdRVttyrDEikKL-50" value="グループ" style="rounded=1;whiteSpace=wrap;html=1;" parent="1" vertex="1">
          <mxGeometry x="1710" y="637.5" width="60" height="52.5" as="geometry" />
        </mxCell>
        <mxCell id="DY4rHuwdRVttyrDEikKL-45" value="グループ" style="rounded=1;whiteSpace=wrap;html=1;" parent="1" vertex="1">
          <mxGeometry x="1620" y="680" width="80" height="60" as="geometry" />
        </mxCell>
        <mxCell id="DY4rHuwdRVttyrDEikKL-51" value="グループ" style="rounded=1;whiteSpace=wrap;html=1;" parent="1" vertex="1">
          <mxGeometry x="1740" y="570" width="130" height="60" as="geometry" />
        </mxCell>
        <mxCell id="DY4rHuwdRVttyrDEikKL-52" value="" style="rounded=0;whiteSpace=wrap;html=1;" parent="1" vertex="1">
          <mxGeometry x="1544" y="870" width="420" height="210" as="geometry" />
        </mxCell>
        <mxCell id="DY4rHuwdRVttyrDEikKL-53" value="旅行" style="ellipse;whiteSpace=wrap;html=1;" parent="1" vertex="1">
          <mxGeometry x="1520" y="827" width="120" height="80" as="geometry" />
        </mxCell>
        <mxCell id="DY4rHuwdRVttyrDEikKL-55" value="グループ" style="rounded=1;whiteSpace=wrap;html=1;verticalAlign=top;" parent="1" vertex="1">
          <mxGeometry x="1590" y="920" width="315" height="120" as="geometry" />
        </mxCell>
        <mxCell id="DY4rHuwdRVttyrDEikKL-61" value="管理者" style="rounded=0;whiteSpace=wrap;html=1;" parent="1" vertex="1">
          <mxGeometry x="1745" y="500" width="100" height="40" as="geometry" />
        </mxCell>
        <mxCell id="DY4rHuwdRVttyrDEikKL-62" value="管理者" style="rounded=0;whiteSpace=wrap;html=1;" parent="1" vertex="1">
          <mxGeometry x="1425" y="970" width="100" height="40" as="geometry" />
        </mxCell>
        <mxCell id="DY4rHuwdRVttyrDEikKL-81" value="" style="group" parent="1" vertex="1" connectable="0">
          <mxGeometry x="1770" y="970" width="90" height="25" as="geometry" />
        </mxCell>
        <mxCell id="DY4rHuwdRVttyrDEikKL-75" value="" style="shape=umlActor;verticalLabelPosition=bottom;verticalAlign=top;html=1;outlineConnect=0;" parent="DY4rHuwdRVttyrDEikKL-81" vertex="1">
          <mxGeometry width="10" height="25" as="geometry" />
        </mxCell>
        <mxCell id="DY4rHuwdRVttyrDEikKL-76" value="" style="shape=umlActor;verticalLabelPosition=bottom;verticalAlign=top;html=1;outlineConnect=0;" parent="DY4rHuwdRVttyrDEikKL-81" vertex="1">
          <mxGeometry x="20" width="10" height="25" as="geometry" />
        </mxCell>
        <mxCell id="DY4rHuwdRVttyrDEikKL-77" value="" style="shape=umlActor;verticalLabelPosition=bottom;verticalAlign=top;html=1;outlineConnect=0;" parent="DY4rHuwdRVttyrDEikKL-81" vertex="1">
          <mxGeometry x="40" width="10" height="25" as="geometry" />
        </mxCell>
        <mxCell id="DY4rHuwdRVttyrDEikKL-78" value="" style="shape=umlActor;verticalLabelPosition=bottom;verticalAlign=top;html=1;outlineConnect=0;" parent="DY4rHuwdRVttyrDEikKL-81" vertex="1">
          <mxGeometry x="60" width="10" height="25" as="geometry" />
        </mxCell>
        <mxCell id="DY4rHuwdRVttyrDEikKL-79" value="" style="shape=umlActor;verticalLabelPosition=bottom;verticalAlign=top;html=1;outlineConnect=0;" parent="DY4rHuwdRVttyrDEikKL-81" vertex="1">
          <mxGeometry x="80" width="10" height="25" as="geometry" />
        </mxCell>
        <mxCell id="DY4rHuwdRVttyrDEikKL-89" value="" style="group" parent="1" vertex="1" connectable="0">
          <mxGeometry x="1845" y="720" width="90" height="20" as="geometry" />
        </mxCell>
        <mxCell id="DY4rHuwdRVttyrDEikKL-90" value="" style="shape=umlActor;verticalLabelPosition=bottom;verticalAlign=top;html=1;outlineConnect=0;" parent="DY4rHuwdRVttyrDEikKL-89" vertex="1">
          <mxGeometry width="10" height="20" as="geometry" />
        </mxCell>
        <mxCell id="DY4rHuwdRVttyrDEikKL-91" value="" style="shape=umlActor;verticalLabelPosition=bottom;verticalAlign=top;html=1;outlineConnect=0;" parent="DY4rHuwdRVttyrDEikKL-89" vertex="1">
          <mxGeometry x="20" width="10" height="20" as="geometry" />
        </mxCell>
        <mxCell id="DY4rHuwdRVttyrDEikKL-92" value="" style="shape=umlActor;verticalLabelPosition=bottom;verticalAlign=top;html=1;outlineConnect=0;" parent="DY4rHuwdRVttyrDEikKL-89" vertex="1">
          <mxGeometry x="40" width="10" height="20" as="geometry" />
        </mxCell>
        <mxCell id="DY4rHuwdRVttyrDEikKL-93" value="" style="shape=umlActor;verticalLabelPosition=bottom;verticalAlign=top;html=1;outlineConnect=0;" parent="DY4rHuwdRVttyrDEikKL-89" vertex="1">
          <mxGeometry x="60" width="10" height="20" as="geometry" />
        </mxCell>
        <mxCell id="DY4rHuwdRVttyrDEikKL-94" value="" style="shape=umlActor;verticalLabelPosition=bottom;verticalAlign=top;html=1;outlineConnect=0;" parent="DY4rHuwdRVttyrDEikKL-89" vertex="1">
          <mxGeometry x="80" width="10" height="20" as="geometry" />
        </mxCell>
        <mxCell id="DY4rHuwdRVttyrDEikKL-101" value="" style="group" parent="1" vertex="1" connectable="0">
          <mxGeometry x="1640" y="610" width="80" height="20" as="geometry" />
        </mxCell>
        <mxCell id="DY4rHuwdRVttyrDEikKL-102" value="" style="shape=umlActor;verticalLabelPosition=bottom;verticalAlign=top;html=1;outlineConnect=0;" parent="DY4rHuwdRVttyrDEikKL-101" vertex="1">
          <mxGeometry width="8.88888888888889" height="20" as="geometry" />
        </mxCell>
        <mxCell id="DY4rHuwdRVttyrDEikKL-103" value="" style="shape=umlActor;verticalLabelPosition=bottom;verticalAlign=top;html=1;outlineConnect=0;" parent="DY4rHuwdRVttyrDEikKL-101" vertex="1">
          <mxGeometry x="17.77777777777778" width="8.88888888888889" height="20" as="geometry" />
        </mxCell>
        <mxCell id="DY4rHuwdRVttyrDEikKL-104" value="" style="shape=umlActor;verticalLabelPosition=bottom;verticalAlign=top;html=1;outlineConnect=0;" parent="DY4rHuwdRVttyrDEikKL-101" vertex="1">
          <mxGeometry x="35.55555555555556" width="8.88888888888889" height="20" as="geometry" />
        </mxCell>
        <mxCell id="DY4rHuwdRVttyrDEikKL-105" value="" style="shape=umlActor;verticalLabelPosition=bottom;verticalAlign=top;html=1;outlineConnect=0;" parent="DY4rHuwdRVttyrDEikKL-101" vertex="1">
          <mxGeometry x="53.33333333333333" width="8.88888888888889" height="20" as="geometry" />
        </mxCell>
        <mxCell id="DY4rHuwdRVttyrDEikKL-108" value="" style="group" parent="1" vertex="1" connectable="0">
          <mxGeometry x="1720" y="670" width="80" height="20" as="geometry" />
        </mxCell>
        <mxCell id="DY4rHuwdRVttyrDEikKL-109" value="" style="shape=umlActor;verticalLabelPosition=bottom;verticalAlign=top;html=1;outlineConnect=0;" parent="DY4rHuwdRVttyrDEikKL-108" vertex="1">
          <mxGeometry width="8.88888888888889" height="20" as="geometry" />
        </mxCell>
        <mxCell id="DY4rHuwdRVttyrDEikKL-110" value="" style="shape=umlActor;verticalLabelPosition=bottom;verticalAlign=top;html=1;outlineConnect=0;" parent="DY4rHuwdRVttyrDEikKL-108" vertex="1">
          <mxGeometry x="17.77777777777778" width="8.88888888888889" height="20" as="geometry" />
        </mxCell>
        <mxCell id="DY4rHuwdRVttyrDEikKL-113" value="" style="group" parent="1" vertex="1" connectable="0">
          <mxGeometry x="1780" y="610" width="80" height="20" as="geometry" />
        </mxCell>
        <mxCell id="DY4rHuwdRVttyrDEikKL-114" value="" style="shape=umlActor;verticalLabelPosition=bottom;verticalAlign=top;html=1;outlineConnect=0;" parent="DY4rHuwdRVttyrDEikKL-113" vertex="1">
          <mxGeometry width="8.88888888888889" height="20" as="geometry" />
        </mxCell>
        <mxCell id="DY4rHuwdRVttyrDEikKL-115" value="" style="shape=umlActor;verticalLabelPosition=bottom;verticalAlign=top;html=1;outlineConnect=0;" parent="DY4rHuwdRVttyrDEikKL-113" vertex="1">
          <mxGeometry x="17.77777777777778" width="8.88888888888889" height="20" as="geometry" />
        </mxCell>
        <mxCell id="DY4rHuwdRVttyrDEikKL-116" value="" style="shape=umlActor;verticalLabelPosition=bottom;verticalAlign=top;html=1;outlineConnect=0;" parent="DY4rHuwdRVttyrDEikKL-113" vertex="1">
          <mxGeometry x="35.55555555555556" width="8.88888888888889" height="20" as="geometry" />
        </mxCell>
        <mxCell id="DY4rHuwdRVttyrDEikKL-117" value="" style="shape=umlActor;verticalLabelPosition=bottom;verticalAlign=top;html=1;outlineConnect=0;" parent="DY4rHuwdRVttyrDEikKL-113" vertex="1">
          <mxGeometry x="53.33333333333333" width="8.88888888888889" height="20" as="geometry" />
        </mxCell>
        <mxCell id="DY4rHuwdRVttyrDEikKL-118" value="" style="group" parent="1" vertex="1" connectable="0">
          <mxGeometry x="1900" y="617.5" width="80" height="20" as="geometry" />
        </mxCell>
        <mxCell id="DY4rHuwdRVttyrDEikKL-119" value="" style="shape=umlActor;verticalLabelPosition=bottom;verticalAlign=top;html=1;outlineConnect=0;" parent="DY4rHuwdRVttyrDEikKL-118" vertex="1">
          <mxGeometry width="8.88888888888889" height="20" as="geometry" />
        </mxCell>
        <mxCell id="DY4rHuwdRVttyrDEikKL-120" value="" style="shape=umlActor;verticalLabelPosition=bottom;verticalAlign=top;html=1;outlineConnect=0;" parent="DY4rHuwdRVttyrDEikKL-118" vertex="1">
          <mxGeometry x="17.77777777777778" width="8.88888888888889" height="20" as="geometry" />
        </mxCell>
        <mxCell id="DY4rHuwdRVttyrDEikKL-121" value="" style="shape=umlActor;verticalLabelPosition=bottom;verticalAlign=top;html=1;outlineConnect=0;" parent="DY4rHuwdRVttyrDEikKL-118" vertex="1">
          <mxGeometry x="35.55555555555556" width="8.88888888888889" height="20" as="geometry" />
        </mxCell>
        <mxCell id="DY4rHuwdRVttyrDEikKL-123" value="" style="group" parent="1" vertex="1" connectable="0">
          <mxGeometry x="1630" y="720" width="80" height="20" as="geometry" />
        </mxCell>
        <mxCell id="DY4rHuwdRVttyrDEikKL-124" value="" style="shape=umlActor;verticalLabelPosition=bottom;verticalAlign=top;html=1;outlineConnect=0;" parent="DY4rHuwdRVttyrDEikKL-123" vertex="1">
          <mxGeometry width="8.88888888888889" height="20" as="geometry" />
        </mxCell>
        <mxCell id="DY4rHuwdRVttyrDEikKL-125" value="" style="shape=umlActor;verticalLabelPosition=bottom;verticalAlign=top;html=1;outlineConnect=0;" parent="DY4rHuwdRVttyrDEikKL-123" vertex="1">
          <mxGeometry x="17.77777777777778" width="8.88888888888889" height="20" as="geometry" />
        </mxCell>
        <mxCell id="DY4rHuwdRVttyrDEikKL-126" value="" style="shape=umlActor;verticalLabelPosition=bottom;verticalAlign=top;html=1;outlineConnect=0;" parent="DY4rHuwdRVttyrDEikKL-123" vertex="1">
          <mxGeometry x="35.55555555555556" width="8.88888888888889" height="20" as="geometry" />
        </mxCell>
        <mxCell id="DY4rHuwdRVttyrDEikKL-133" value="" style="shape=umlActor;verticalLabelPosition=bottom;verticalAlign=top;html=1;outlineConnect=0;" parent="1" vertex="1">
          <mxGeometry x="1755.5577777777778" y="720" width="8.88888888888889" height="20" as="geometry" />
        </mxCell>
        <mxCell id="DY4rHuwdRVttyrDEikKL-134" value="" style="shape=umlActor;verticalLabelPosition=bottom;verticalAlign=top;html=1;outlineConnect=0;" parent="1" vertex="1">
          <mxGeometry x="1629.9977777777779" y="650" width="8.88888888888889" height="20" as="geometry" />
        </mxCell>
        <mxCell id="DY4rHuwdRVttyrDEikKL-135" value="" style="shape=umlActor;verticalLabelPosition=bottom;verticalAlign=top;html=1;outlineConnect=0;" parent="1" vertex="1">
          <mxGeometry x="1719.9977777777779" y="700" width="8.88888888888889" height="20" as="geometry" />
        </mxCell>
        <mxCell id="DY4rHuwdRVttyrDEikKL-136" value="" style="shape=umlActor;verticalLabelPosition=bottom;verticalAlign=top;html=1;outlineConnect=0;" parent="1" vertex="1">
          <mxGeometry x="1955.1077777777778" y="550" width="8.88888888888889" height="20" as="geometry" />
        </mxCell>
        <mxCell id="DY4rHuwdRVttyrDEikKL-137" value="" style="shape=umlActor;verticalLabelPosition=bottom;verticalAlign=top;html=1;outlineConnect=0;" parent="1" vertex="1">
          <mxGeometry x="1881.1077777777778" y="550" width="8.88888888888889" height="20" as="geometry" />
        </mxCell>
        <mxCell id="DY4rHuwdRVttyrDEikKL-138" value="" style="shape=umlActor;verticalLabelPosition=bottom;verticalAlign=top;html=1;outlineConnect=0;" parent="1" vertex="1">
          <mxGeometry x="1979.9977777777779" y="680" width="8.88888888888889" height="20" as="geometry" />
        </mxCell>
        <mxCell id="DY4rHuwdRVttyrDEikKL-139" value="イベントの大きなくくりの中に&lt;br&gt;さらにそれぞれでグループがある" style="text;html=1;align=center;verticalAlign=middle;resizable=0;points=[];autosize=1;strokeColor=none;fillColor=none;" parent="1" vertex="1">
          <mxGeometry x="2075" y="600" width="200" height="40" as="geometry" />
        </mxCell>
        <mxCell id="DY4rHuwdRVttyrDEikKL-140" value="旅行グループのリーダーが管理者" style="text;html=1;align=center;verticalAlign=middle;resizable=0;points=[];autosize=1;strokeColor=none;fillColor=none;" parent="1" vertex="1">
          <mxGeometry x="2100" y="1150" width="200" height="30" as="geometry" />
        </mxCell>
        <mxCell id="939VMe6MDlw07Kl8Ivs7-1" value="" style="shape=umlActor;verticalLabelPosition=bottom;verticalAlign=top;html=1;outlineConnect=0;" parent="1" vertex="1">
          <mxGeometry x="1505" y="990" width="10" height="20" as="geometry" />
        </mxCell>
        <mxCell id="939VMe6MDlw07Kl8Ivs7-2" value="" style="group" parent="1" vertex="1" connectable="0">
          <mxGeometry x="550" y="690" width="310" height="620" as="geometry" />
        </mxCell>
        <mxCell id="DY4rHuwdRVttyrDEikKL-42" value="" style="rounded=0;whiteSpace=wrap;html=1;" parent="939VMe6MDlw07Kl8Ivs7-2" vertex="1">
          <mxGeometry x="11.2375" y="18.25328330206379" width="298.76250000000005" height="264.27579737335833" as="geometry" />
        </mxCell>
        <mxCell id="DY4rHuwdRVttyrDEikKL-141" value="" style="triangle;whiteSpace=wrap;html=1;rotation=90;fillColor=#f8cecc;strokeColor=#b85450;" parent="939VMe6MDlw07Kl8Ivs7-2" vertex="1">
          <mxGeometry x="258.07500000000005" y="198.40525328330207" width="16.275000000000002" height="13.49155722326454" as="geometry" />
        </mxCell>
        <mxCell id="DY4rHuwdRVttyrDEikKL-142" value="" style="ellipse;whiteSpace=wrap;html=1;aspect=fixed;fillColor=#dae8fc;strokeColor=#6c8ebf;" parent="939VMe6MDlw07Kl8Ivs7-2" vertex="1">
          <mxGeometry x="54.6375" y="65.87054409005628" width="15.499214035799401" height="15.499214035799401" as="geometry" />
        </mxCell>
        <mxCell id="DY4rHuwdRVttyrDEikKL-143" style="edgeStyle=orthogonalEdgeStyle;rounded=0;orthogonalLoop=1;jettySize=auto;html=1;entryX=0.5;entryY=1;entryDx=0;entryDy=0;" parent="939VMe6MDlw07Kl8Ivs7-2" source="DY4rHuwdRVttyrDEikKL-141" target="DY4rHuwdRVttyrDEikKL-142" edge="1">
          <mxGeometry relative="1" as="geometry">
            <mxPoint x="86.025" y="64.28330206378988" as="targetPoint" />
            <Array as="points">
              <mxPoint x="220" y="202" />
              <mxPoint x="220" y="130" />
              <mxPoint x="81" y="130" />
              <mxPoint x="81" y="81" />
            </Array>
          </mxGeometry>
        </mxCell>
        <mxCell id="DY4rHuwdRVttyrDEikKL-144" value="マップ" style="ellipse;whiteSpace=wrap;html=1;" parent="939VMe6MDlw07Kl8Ivs7-2" vertex="1">
          <mxGeometry width="69.75" height="47.6172607879925" as="geometry" />
        </mxCell>
        <mxCell id="DY4rHuwdRVttyrDEikKL-145" value="" style="rounded=0;whiteSpace=wrap;html=1;" parent="939VMe6MDlw07Kl8Ivs7-2" vertex="1">
          <mxGeometry x="11.2375" y="282.5290806754221" width="298.76250000000005" height="47.6172607879925" as="geometry" />
        </mxCell>
        <mxCell id="DY4rHuwdRVttyrDEikKL-146" value="自分の状況▼" style="rounded=1;whiteSpace=wrap;html=1;" parent="939VMe6MDlw07Kl8Ivs7-2" vertex="1">
          <mxGeometry x="30.6125" y="294.4333958724203" width="93" height="23.80863039399625" as="geometry" />
        </mxCell>
        <mxCell id="DY4rHuwdRVttyrDEikKL-147" value="集合ルート　　　　　" style="rounded=1;whiteSpace=wrap;html=1;" parent="939VMe6MDlw07Kl8Ivs7-2" vertex="1">
          <mxGeometry x="155" y="289.2748592870544" width="147.25" height="34.12570356472796" as="geometry" />
        </mxCell>
        <mxCell id="DY4rHuwdRVttyrDEikKL-148" value="作成" style="rounded=1;whiteSpace=wrap;html=1;" parent="939VMe6MDlw07Kl8Ivs7-2" vertex="1">
          <mxGeometry x="255.75" y="294.4333958724203" width="38.75" height="23.80863039399625" as="geometry" />
        </mxCell>
        <mxCell id="DY4rHuwdRVttyrDEikKL-149" value="" style="rounded=0;whiteSpace=wrap;html=1;" parent="939VMe6MDlw07Kl8Ivs7-2" vertex="1">
          <mxGeometry x="30.6125" y="188.64202626641654" width="93" height="104.7579737335835" as="geometry" />
        </mxCell>
        <mxCell id="DY4rHuwdRVttyrDEikKL-150" value="" style="triangle;whiteSpace=wrap;html=1;rotation=90;fillColor=#f8cecc;strokeColor=#b85450;" parent="939VMe6MDlw07Kl8Ivs7-2" vertex="1">
          <mxGeometry x="38.362500000000004" y="200.54634146341462" width="16.275000000000002" height="13.49155722326454" as="geometry" />
        </mxCell>
        <mxCell id="DY4rHuwdRVttyrDEikKL-151" value="" style="triangle;whiteSpace=wrap;html=1;rotation=90;fillColor=#dae8fc;strokeColor=#6c8ebf;" parent="939VMe6MDlw07Kl8Ivs7-2" vertex="1">
          <mxGeometry x="38.362500000000004" y="221.97410881801127" width="16.275000000000002" height="13.49155722326454" as="geometry" />
        </mxCell>
        <mxCell id="DY4rHuwdRVttyrDEikKL-152" value="" style="triangle;whiteSpace=wrap;html=1;rotation=90;fillColor=#d5e8d4;strokeColor=#82b366;" parent="939VMe6MDlw07Kl8Ivs7-2" vertex="1">
          <mxGeometry x="38.362500000000004" y="245.78273921200756" width="16.275000000000002" height="13.49155722326454" as="geometry" />
        </mxCell>
        <mxCell id="DY4rHuwdRVttyrDEikKL-153" value="" style="triangle;whiteSpace=wrap;html=1;rotation=90;fillColor=#ffe6cc;strokeColor=#d79b00;" parent="939VMe6MDlw07Kl8Ivs7-2" vertex="1">
          <mxGeometry x="38.362500000000004" y="269.5913696060038" width="16.275000000000002" height="13.49155722326454" as="geometry" />
        </mxCell>
        <mxCell id="DY4rHuwdRVttyrDEikKL-155" value="迷子" style="text;html=1;align=center;verticalAlign=middle;resizable=0;points=[];autosize=1;strokeColor=none;fillColor=none;" parent="939VMe6MDlw07Kl8Ivs7-2" vertex="1">
          <mxGeometry x="57.737500000000004" y="193.80056285178236" width="50" height="30" as="geometry" />
        </mxCell>
        <mxCell id="DY4rHuwdRVttyrDEikKL-156" value="通常" style="text;html=1;align=center;verticalAlign=middle;resizable=0;points=[];autosize=1;strokeColor=none;fillColor=none;" parent="939VMe6MDlw07Kl8Ivs7-2" vertex="1">
          <mxGeometry x="57.737500000000004" y="217.60919324577864" width="50" height="30" as="geometry" />
        </mxCell>
        <mxCell id="DY4rHuwdRVttyrDEikKL-157" value="待機" style="text;html=1;align=center;verticalAlign=middle;resizable=0;points=[];autosize=1;strokeColor=none;fillColor=none;" parent="939VMe6MDlw07Kl8Ivs7-2" vertex="1">
          <mxGeometry x="57.737500000000004" y="240.62420262664168" width="50" height="30" as="geometry" />
        </mxCell>
        <mxCell id="DY4rHuwdRVttyrDEikKL-158" value="緊急" style="text;html=1;align=center;verticalAlign=middle;resizable=0;points=[];autosize=1;strokeColor=none;fillColor=none;" parent="939VMe6MDlw07Kl8Ivs7-2" vertex="1">
          <mxGeometry x="57.737500000000004" y="264.432833020638" width="50" height="30" as="geometry" />
        </mxCell>
        <mxCell id="939VMe6MDlw07Kl8Ivs7-47" value="ユーザー情報確認&lt;br&gt;" style="rounded=0;whiteSpace=wrap;html=1;align=left;verticalAlign=top;" parent="939VMe6MDlw07Kl8Ivs7-2" vertex="1">
          <mxGeometry x="25" y="380" width="260" height="240" as="geometry" />
        </mxCell>
        <mxCell id="939VMe6MDlw07Kl8Ivs7-48" value="登録情報表示" style="rounded=0;whiteSpace=wrap;html=1;" parent="939VMe6MDlw07Kl8Ivs7-2" vertex="1">
          <mxGeometry x="135" y="414" width="130" height="180" as="geometry" />
        </mxCell>
        <mxCell id="939VMe6MDlw07Kl8Ivs7-49" value="情報の変更&lt;br&gt;ーーーーーーー&lt;br&gt;情報の削除" style="rounded=0;whiteSpace=wrap;html=1;" parent="939VMe6MDlw07Kl8Ivs7-2" vertex="1">
          <mxGeometry x="25" y="414" width="91" height="60" as="geometry" />
        </mxCell>
        <mxCell id="939VMe6MDlw07Kl8Ivs7-50" value="自分の状況▼" style="rounded=1;whiteSpace=wrap;html=1;" parent="939VMe6MDlw07Kl8Ivs7-2" vertex="1">
          <mxGeometry x="25.00249999999994" y="480.00339587242024" width="93" height="23.80863039399625" as="geometry" />
        </mxCell>
        <mxCell id="939VMe6MDlw07Kl8Ivs7-60" value="" style="group" parent="939VMe6MDlw07Kl8Ivs7-2" vertex="1" connectable="0">
          <mxGeometry x="25.00249999999994" y="503.8120262664165" width="93" height="105.79080675422142" as="geometry" />
        </mxCell>
        <mxCell id="939VMe6MDlw07Kl8Ivs7-51" value="" style="rounded=0;whiteSpace=wrap;html=1;" parent="939VMe6MDlw07Kl8Ivs7-60" vertex="1">
          <mxGeometry width="93" height="104.7579737335835" as="geometry" />
        </mxCell>
        <mxCell id="939VMe6MDlw07Kl8Ivs7-52" value="" style="triangle;whiteSpace=wrap;html=1;rotation=90;fillColor=#f8cecc;strokeColor=#b85450;" parent="939VMe6MDlw07Kl8Ivs7-60" vertex="1">
          <mxGeometry x="7.75" y="11.904315196997914" width="16.275000000000002" height="13.49155722326454" as="geometry" />
        </mxCell>
        <mxCell id="939VMe6MDlw07Kl8Ivs7-53" value="" style="triangle;whiteSpace=wrap;html=1;rotation=90;fillColor=#dae8fc;strokeColor=#6c8ebf;" parent="939VMe6MDlw07Kl8Ivs7-60" vertex="1">
          <mxGeometry x="7.75" y="33.33208255159457" width="16.275000000000002" height="13.49155722326454" as="geometry" />
        </mxCell>
        <mxCell id="939VMe6MDlw07Kl8Ivs7-54" value="" style="triangle;whiteSpace=wrap;html=1;rotation=90;fillColor=#d5e8d4;strokeColor=#82b366;" parent="939VMe6MDlw07Kl8Ivs7-60" vertex="1">
          <mxGeometry x="7.75" y="57.14071294559085" width="16.275000000000002" height="13.49155722326454" as="geometry" />
        </mxCell>
        <mxCell id="939VMe6MDlw07Kl8Ivs7-55" value="" style="triangle;whiteSpace=wrap;html=1;rotation=90;fillColor=#ffe6cc;strokeColor=#d79b00;" parent="939VMe6MDlw07Kl8Ivs7-60" vertex="1">
          <mxGeometry x="7.75" y="80.94934333958713" width="16.275000000000002" height="13.49155722326454" as="geometry" />
        </mxCell>
        <mxCell id="939VMe6MDlw07Kl8Ivs7-56" value="迷子" style="text;html=1;align=center;verticalAlign=middle;resizable=0;points=[];autosize=1;strokeColor=none;fillColor=none;" parent="939VMe6MDlw07Kl8Ivs7-60" vertex="1">
          <mxGeometry x="27.125" y="5.1585365853657095" width="50" height="30" as="geometry" />
        </mxCell>
        <mxCell id="939VMe6MDlw07Kl8Ivs7-57" value="通常" style="text;html=1;align=center;verticalAlign=middle;resizable=0;points=[];autosize=1;strokeColor=none;fillColor=none;" parent="939VMe6MDlw07Kl8Ivs7-60" vertex="1">
          <mxGeometry x="27.125" y="28.96716697936199" width="50" height="30" as="geometry" />
        </mxCell>
        <mxCell id="939VMe6MDlw07Kl8Ivs7-58" value="待機" style="text;html=1;align=center;verticalAlign=middle;resizable=0;points=[];autosize=1;strokeColor=none;fillColor=none;" parent="939VMe6MDlw07Kl8Ivs7-60" vertex="1">
          <mxGeometry x="27.125" y="51.98217636022514" width="50" height="30" as="geometry" />
        </mxCell>
        <mxCell id="939VMe6MDlw07Kl8Ivs7-59" value="緊急" style="text;html=1;align=center;verticalAlign=middle;resizable=0;points=[];autosize=1;strokeColor=none;fillColor=none;" parent="939VMe6MDlw07Kl8Ivs7-60" vertex="1">
          <mxGeometry x="27.125" y="75.79080675422142" width="50" height="30" as="geometry" />
        </mxCell>
        <mxCell id="939VMe6MDlw07Kl8Ivs7-8" value="" style="rounded=0;whiteSpace=wrap;html=1;" parent="1" vertex="1">
          <mxGeometry x="180" y="830" width="160" height="88" as="geometry" />
        </mxCell>
        <mxCell id="939VMe6MDlw07Kl8Ivs7-9" value="グループID：　　　" style="rounded=1;whiteSpace=wrap;html=1;" parent="1" vertex="1">
          <mxGeometry x="200" y="839" width="120" height="40" as="geometry" />
        </mxCell>
        <mxCell id="939VMe6MDlw07Kl8Ivs7-10" value="作成" style="rounded=1;whiteSpace=wrap;html=1;" parent="1" vertex="1">
          <mxGeometry x="230" y="884" width="60" height="30" as="geometry" />
        </mxCell>
        <mxCell id="939VMe6MDlw07Kl8Ivs7-12" value="" style="rounded=0;whiteSpace=wrap;html=1;" parent="1" vertex="1">
          <mxGeometry x="365" y="830" width="160" height="88" as="geometry" />
        </mxCell>
        <mxCell id="939VMe6MDlw07Kl8Ivs7-13" value="グループID：　　　" style="rounded=1;whiteSpace=wrap;html=1;" parent="1" vertex="1">
          <mxGeometry x="385" y="837.5" width="120" height="40" as="geometry" />
        </mxCell>
        <mxCell id="939VMe6MDlw07Kl8Ivs7-14" value="参加" style="rounded=1;whiteSpace=wrap;html=1;" parent="1" vertex="1">
          <mxGeometry x="415" y="882.5" width="60" height="30" as="geometry" />
        </mxCell>
        <mxCell id="939VMe6MDlw07Kl8Ivs7-15" value="" style="rounded=0;whiteSpace=wrap;html=1;" parent="1" vertex="1">
          <mxGeometry x="247.5" y="973" width="205" height="140" as="geometry" />
        </mxCell>
        <mxCell id="939VMe6MDlw07Kl8Ivs7-16" value="グループメンバー&lt;br&gt;OO OO&lt;br&gt;OOO O&lt;br&gt;:&lt;br&gt;:" style="rounded=0;whiteSpace=wrap;html=1;verticalAlign=top;" parent="1" vertex="1">
          <mxGeometry x="262.5" y="988" width="120" height="80" as="geometry" />
        </mxCell>
        <mxCell id="939VMe6MDlw07Kl8Ivs7-17" value="退出" style="rounded=1;whiteSpace=wrap;html=1;" parent="1" vertex="1">
          <mxGeometry x="382.5" y="1073" width="60" height="30" as="geometry" />
        </mxCell>
        <mxCell id="939VMe6MDlw07Kl8Ivs7-20" value="" style="group" parent="1" vertex="1" connectable="0">
          <mxGeometry x="1200" y="690" width="250" height="150" as="geometry" />
        </mxCell>
        <mxCell id="939VMe6MDlw07Kl8Ivs7-18" value="緊急事態を連絡" style="rounded=0;whiteSpace=wrap;html=1;verticalAlign=top;" parent="939VMe6MDlw07Kl8Ivs7-20" vertex="1">
          <mxGeometry width="220" height="150" as="geometry" />
        </mxCell>
        <mxCell id="939VMe6MDlw07Kl8Ivs7-19" value="緊急通知" style="ellipse;whiteSpace=wrap;html=1;" parent="939VMe6MDlw07Kl8Ivs7-20" vertex="1">
          <mxGeometry x="50" y="60" width="120" height="75.63" as="geometry" />
        </mxCell>
        <mxCell id="CKtyOYaQWajw3hzrJsdJ-10" value="通知先▼" style="rounded=1;whiteSpace=wrap;html=1;" parent="939VMe6MDlw07Kl8Ivs7-20" vertex="1">
          <mxGeometry x="50" y="30" width="120" height="20" as="geometry" />
        </mxCell>
        <mxCell id="CKtyOYaQWajw3hzrJsdJ-12" value="両方&lt;br&gt;グループ内&lt;br&gt;管理者" style="rounded=0;whiteSpace=wrap;html=1;" parent="939VMe6MDlw07Kl8Ivs7-20" vertex="1">
          <mxGeometry x="170" y="30" width="80" height="60" as="geometry" />
        </mxCell>
        <mxCell id="939VMe6MDlw07Kl8Ivs7-38" value="" style="group" parent="1" vertex="1" connectable="0">
          <mxGeometry x="910" y="690" width="250" height="328" as="geometry" />
        </mxCell>
        <mxCell id="939VMe6MDlw07Kl8Ivs7-22" value="" style="rounded=0;whiteSpace=wrap;html=1;" parent="939VMe6MDlw07Kl8Ivs7-38" vertex="1">
          <mxGeometry width="250" height="240" as="geometry" />
        </mxCell>
        <mxCell id="939VMe6MDlw07Kl8Ivs7-23" value="" style="rounded=0;whiteSpace=wrap;html=1;" parent="939VMe6MDlw07Kl8Ivs7-38" vertex="1">
          <mxGeometry y="237" width="250" height="60" as="geometry" />
        </mxCell>
        <mxCell id="939VMe6MDlw07Kl8Ivs7-24" value="送信" style="rounded=1;whiteSpace=wrap;html=1;" parent="939VMe6MDlw07Kl8Ivs7-38" vertex="1">
          <mxGeometry x="190" y="260" width="50" height="25" as="geometry" />
        </mxCell>
        <mxCell id="939VMe6MDlw07Kl8Ivs7-29" value="" style="rounded=1;whiteSpace=wrap;html=1;" parent="939VMe6MDlw07Kl8Ivs7-38" vertex="1">
          <mxGeometry x="120" y="35" width="120" height="35" as="geometry" />
        </mxCell>
        <mxCell id="939VMe6MDlw07Kl8Ivs7-30" value="" style="rounded=1;whiteSpace=wrap;html=1;" parent="939VMe6MDlw07Kl8Ivs7-38" vertex="1">
          <mxGeometry x="10" y="10" width="120" height="20" as="geometry" />
        </mxCell>
        <mxCell id="939VMe6MDlw07Kl8Ivs7-31" value="" style="rounded=1;whiteSpace=wrap;html=1;" parent="939VMe6MDlw07Kl8Ivs7-38" vertex="1">
          <mxGeometry x="10" y="80" width="120" height="40" as="geometry" />
        </mxCell>
        <mxCell id="939VMe6MDlw07Kl8Ivs7-32" value="" style="rounded=1;whiteSpace=wrap;html=1;" parent="939VMe6MDlw07Kl8Ivs7-38" vertex="1">
          <mxGeometry x="150" y="130" width="90" height="20" as="geometry" />
        </mxCell>
        <mxCell id="939VMe6MDlw07Kl8Ivs7-33" value="" style="rounded=1;whiteSpace=wrap;html=1;" parent="939VMe6MDlw07Kl8Ivs7-38" vertex="1">
          <mxGeometry x="120" y="158.5" width="120" height="31.5" as="geometry" />
        </mxCell>
        <mxCell id="939VMe6MDlw07Kl8Ivs7-34" value="" style="rounded=1;whiteSpace=wrap;html=1;" parent="939VMe6MDlw07Kl8Ivs7-38" vertex="1">
          <mxGeometry x="10" y="200" width="100" height="30" as="geometry" />
        </mxCell>
        <mxCell id="939VMe6MDlw07Kl8Ivs7-36" value="ーーーーーーー？" style="rounded=1;whiteSpace=wrap;html=1;" parent="939VMe6MDlw07Kl8Ivs7-38" vertex="1">
          <mxGeometry x="10" y="247.5" width="170" height="40" as="geometry" />
        </mxCell>
        <mxCell id="939VMe6MDlw07Kl8Ivs7-37" value="チャット形式" style="text;html=1;align=center;verticalAlign=middle;resizable=0;points=[];autosize=1;strokeColor=none;fillColor=none;" parent="939VMe6MDlw07Kl8Ivs7-38" vertex="1">
          <mxGeometry x="75" y="298" width="100" height="30" as="geometry" />
        </mxCell>
        <mxCell id="939VMe6MDlw07Kl8Ivs7-45" value="" style="group" parent="1" vertex="1" connectable="0">
          <mxGeometry x="910" y="1050" width="250" height="200" as="geometry" />
        </mxCell>
        <mxCell id="939VMe6MDlw07Kl8Ivs7-39" value="" style="rounded=0;whiteSpace=wrap;html=1;" parent="939VMe6MDlw07Kl8Ivs7-45" vertex="1">
          <mxGeometry width="250" height="170" as="geometry" />
        </mxCell>
        <mxCell id="939VMe6MDlw07Kl8Ivs7-40" value="相談内容▼&lt;br&gt;予定について" style="rounded=1;whiteSpace=wrap;html=1;" parent="939VMe6MDlw07Kl8Ivs7-45" vertex="1">
          <mxGeometry x="30" y="20" width="190" height="40" as="geometry" />
        </mxCell>
        <mxCell id="939VMe6MDlw07Kl8Ivs7-41" value="ーーーー&lt;br&gt;ーーーーーーーーーーー&lt;br&gt;ーーーーーーー？" style="rounded=1;whiteSpace=wrap;html=1;" parent="939VMe6MDlw07Kl8Ivs7-45" vertex="1">
          <mxGeometry x="30" y="70" width="190" height="60" as="geometry" />
        </mxCell>
        <mxCell id="939VMe6MDlw07Kl8Ivs7-42" value="送信" style="rounded=1;whiteSpace=wrap;html=1;" parent="939VMe6MDlw07Kl8Ivs7-45" vertex="1">
          <mxGeometry x="100" y="140" width="50" height="25" as="geometry" />
        </mxCell>
        <mxCell id="939VMe6MDlw07Kl8Ivs7-44" value="フォーム形式" style="text;html=1;align=center;verticalAlign=middle;resizable=0;points=[];autosize=1;strokeColor=none;fillColor=none;" parent="939VMe6MDlw07Kl8Ivs7-45" vertex="1">
          <mxGeometry x="75" y="170" width="100" height="30" as="geometry" />
        </mxCell>
        <mxCell id="939VMe6MDlw07Kl8Ivs7-3" value="" style="rounded=0;whiteSpace=wrap;html=1;container=0;" parent="1" vertex="1">
          <mxGeometry x="255" y="703" width="190" height="100" as="geometry" />
        </mxCell>
        <mxCell id="939VMe6MDlw07Kl8Ivs7-4" value="グループを作成" style="rounded=1;whiteSpace=wrap;html=1;container=0;" parent="1" vertex="1">
          <mxGeometry x="290" y="716" width="120" height="35" as="geometry" />
        </mxCell>
        <mxCell id="939VMe6MDlw07Kl8Ivs7-5" value="グループに参加" style="rounded=1;whiteSpace=wrap;html=1;container=0;" parent="1" vertex="1">
          <mxGeometry x="290" y="761" width="120" height="30" as="geometry" />
        </mxCell>
        <mxCell id="939VMe6MDlw07Kl8Ivs7-73" value="" style="group" parent="1" vertex="1" connectable="0">
          <mxGeometry x="1425" y="1440" width="475" height="80" as="geometry" />
        </mxCell>
        <mxCell id="939VMe6MDlw07Kl8Ivs7-61" value="ユーザー" style="shape=umlActor;verticalLabelPosition=bottom;verticalAlign=top;html=1;outlineConnect=0;" parent="939VMe6MDlw07Kl8Ivs7-73" vertex="1">
          <mxGeometry x="-15" width="30" height="60" as="geometry" />
        </mxCell>
        <mxCell id="939VMe6MDlw07Kl8Ivs7-72" value="新規登録・ログイン・ログアウト&lt;br&gt;アカウントの確認・変更・削除、状況変更&lt;br&gt;グループの作成・変更・削除&lt;br&gt;合流ルートの作成&lt;br&gt;管理者に連絡" style="whiteSpace=wrap;html=1;" parent="939VMe6MDlw07Kl8Ivs7-73" vertex="1">
          <mxGeometry x="55" width="420" height="80" as="geometry" />
        </mxCell>
        <mxCell id="939VMe6MDlw07Kl8Ivs7-74" value="" style="group" parent="1" vertex="1" connectable="0">
          <mxGeometry x="1415.55" y="1330" width="484.4499999999998" height="70" as="geometry" />
        </mxCell>
        <mxCell id="939VMe6MDlw07Kl8Ivs7-63" value="管理者" style="shape=umlActor;verticalLabelPosition=bottom;verticalAlign=top;html=1;outlineConnect=0;" parent="939VMe6MDlw07Kl8Ivs7-74" vertex="1">
          <mxGeometry x="-5.55" width="30" height="60" as="geometry" />
        </mxCell>
        <mxCell id="939VMe6MDlw07Kl8Ivs7-71" value="位置情報の取得、間隔の設定&lt;br&gt;ユーザーの異常確認" style="whiteSpace=wrap;html=1;" parent="939VMe6MDlw07Kl8Ivs7-74" vertex="1">
          <mxGeometry x="64.45000000000005" y="10" width="420" height="60" as="geometry" />
        </mxCell>
        <mxCell id="939VMe6MDlw07Kl8Ivs7-75" value="" style="group" parent="1" vertex="1" connectable="0">
          <mxGeometry x="1420" y="1230" width="480" height="71" as="geometry" />
        </mxCell>
        <mxCell id="939VMe6MDlw07Kl8Ivs7-62" value="提案先" style="shape=umlActor;verticalLabelPosition=bottom;verticalAlign=top;html=1;outlineConnect=0;" parent="939VMe6MDlw07Kl8Ivs7-75" vertex="1">
          <mxGeometry x="-10" width="30" height="60" as="geometry" />
        </mxCell>
        <mxCell id="939VMe6MDlw07Kl8Ivs7-70" value="ツアーの作成・変更・削除&lt;br&gt;イベントグループの作成・削除&lt;br&gt;ユーザーの管理" style="whiteSpace=wrap;html=1;" parent="939VMe6MDlw07Kl8Ivs7-75" vertex="1">
          <mxGeometry x="60" y="11" width="420" height="60" as="geometry" />
        </mxCell>
        <mxCell id="939VMe6MDlw07Kl8Ivs7-76" value="GPSのプライバシーは&lt;br&gt;最初に規約に同意してもらう" style="text;html=1;align=center;verticalAlign=middle;resizable=0;points=[];autosize=1;strokeColor=none;fillColor=none;" parent="1" vertex="1">
          <mxGeometry x="2008.89" y="1280" width="180" height="40" as="geometry" />
        </mxCell>
        <mxCell id="939VMe6MDlw07Kl8Ivs7-78" value="情報確認画面" style="text;html=1;align=center;verticalAlign=middle;resizable=0;points=[];autosize=1;strokeColor=none;fillColor=none;" parent="1" vertex="1">
          <mxGeometry x="630" y="1318" width="100" height="30" as="geometry" />
        </mxCell>
        <mxCell id="939VMe6MDlw07Kl8Ivs7-79" value="マップ上に" style="text;html=1;align=center;verticalAlign=middle;resizable=0;points=[];autosize=1;strokeColor=none;fillColor=none;" parent="1" vertex="1">
          <mxGeometry x="650" y="1018" width="80" height="30" as="geometry" />
        </mxCell>
        <mxCell id="939VMe6MDlw07Kl8Ivs7-80" value="ポップアップ" style="text;html=1;align=center;verticalAlign=middle;resizable=0;points=[];autosize=1;strokeColor=none;fillColor=none;" parent="1" vertex="1">
          <mxGeometry x="1055" y="50" width="100" height="30" as="geometry" />
        </mxCell>
        <mxCell id="939VMe6MDlw07Kl8Ivs7-81" value="ログアウトしました" style="rounded=0;whiteSpace=wrap;html=1;" parent="1" vertex="1">
          <mxGeometry x="1210" y="80" width="120" height="60" as="geometry" />
        </mxCell>
        <mxCell id="939VMe6MDlw07Kl8Ivs7-84" style="edgeStyle=orthogonalEdgeStyle;rounded=0;orthogonalLoop=1;jettySize=auto;html=1;" parent="1" source="939VMe6MDlw07Kl8Ivs7-85" target="939VMe6MDlw07Kl8Ivs7-87" edge="1">
          <mxGeometry relative="1" as="geometry" />
        </mxCell>
        <mxCell id="939VMe6MDlw07Kl8Ivs7-85" value="削除しますか？&lt;br&gt;はい　いいえ" style="rounded=0;whiteSpace=wrap;html=1;align=center;verticalAlign=top;" parent="1" vertex="1">
          <mxGeometry x="990" y="395" width="130" height="45" as="geometry" />
        </mxCell>
        <mxCell id="939VMe6MDlw07Kl8Ivs7-86" value="ポップアップ" style="text;html=1;align=center;verticalAlign=middle;resizable=0;points=[];autosize=1;strokeColor=none;fillColor=none;" parent="1" vertex="1">
          <mxGeometry x="1005" y="365" width="100" height="30" as="geometry" />
        </mxCell>
        <mxCell id="939VMe6MDlw07Kl8Ivs7-87" value="削除しました" style="rounded=0;whiteSpace=wrap;html=1;" parent="1" vertex="1">
          <mxGeometry x="1160" y="387.5" width="120" height="60" as="geometry" />
        </mxCell>
        <mxCell id="CKtyOYaQWajw3hzrJsdJ-2" value="グループ作成" style="ellipse;whiteSpace=wrap;html=1;" parent="1" vertex="1">
          <mxGeometry x="744" y="85" width="110" height="50" as="geometry" />
        </mxCell>
        <mxCell id="CKtyOYaQWajw3hzrJsdJ-3" value="" style="rounded=0;whiteSpace=wrap;html=1;" parent="1" vertex="1">
          <mxGeometry x="550" y="-110" width="160" height="150" as="geometry" />
        </mxCell>
        <mxCell id="CKtyOYaQWajw3hzrJsdJ-4" value="グループID：　　　" style="rounded=1;whiteSpace=wrap;html=1;" parent="1" vertex="1">
          <mxGeometry x="570" y="-101" width="120" height="40" as="geometry" />
        </mxCell>
        <mxCell id="CKtyOYaQWajw3hzrJsdJ-5" value="作成" style="rounded=1;whiteSpace=wrap;html=1;" parent="1" vertex="1">
          <mxGeometry x="600" width="60" height="30" as="geometry" />
        </mxCell>
        <mxCell id="CKtyOYaQWajw3hzrJsdJ-6" value="参加人数：　　　" style="rounded=1;whiteSpace=wrap;html=1;" parent="1" vertex="1">
          <mxGeometry x="569.5" y="-50" width="120" height="40" as="geometry" />
        </mxCell>
        <mxCell id="CKtyOYaQWajw3hzrJsdJ-7" value="" style="rounded=0;whiteSpace=wrap;html=1;" parent="1" vertex="1">
          <mxGeometry x="730" y="-110" width="205" height="140" as="geometry" />
        </mxCell>
        <mxCell id="CKtyOYaQWajw3hzrJsdJ-8" value="グループメンバー&lt;br&gt;OO OO&lt;br&gt;OOO O&lt;br&gt;:&lt;br&gt;:" style="rounded=0;whiteSpace=wrap;html=1;verticalAlign=top;" parent="1" vertex="1">
          <mxGeometry x="745" y="-95" width="120" height="80" as="geometry" />
        </mxCell>
        <mxCell id="CKtyOYaQWajw3hzrJsdJ-9" value="退出" style="rounded=1;whiteSpace=wrap;html=1;" parent="1" vertex="1">
          <mxGeometry x="865" y="-10" width="60" height="30" as="geometry" />
        </mxCell>
        <mxCell id="CKtyOYaQWajw3hzrJsdJ-11" value="デフォルト両方" style="text;html=1;align=center;verticalAlign=middle;resizable=0;points=[];autosize=1;strokeColor=none;fillColor=none;" parent="1" vertex="1">
          <mxGeometry x="1255" y="660" width="110" height="30" as="geometry" />
        </mxCell>
        <mxCell id="CKtyOYaQWajw3hzrJsdJ-13" value="No. |　 名前　 | 年齢 | 通知 | 状況 | 不動 |　残時間" style="rounded=0;whiteSpace=wrap;html=1;" parent="1" vertex="1">
          <mxGeometry x="1510" y="125" width="270" height="25" as="geometry" />
        </mxCell>
        <mxCell id="CKtyOYaQWajw3hzrJsdJ-14" value="１　&amp;nbsp; &amp;nbsp;OO　O&amp;nbsp; &amp;nbsp; &amp;nbsp;28　　O　　 / 　　/　　　5:32&lt;br&gt;２　&amp;nbsp; OO　OO&amp;nbsp; &amp;nbsp;32&amp;nbsp; &amp;nbsp; &amp;nbsp;　/&amp;nbsp; &amp;nbsp; &amp;nbsp; &amp;nbsp; &amp;nbsp;O&amp;nbsp; &amp;nbsp; &amp;nbsp; /&amp;nbsp; &amp;nbsp; &amp;nbsp; &amp;nbsp; &amp;nbsp; &amp;nbsp;7:54" style="rounded=0;whiteSpace=wrap;html=1;align=left;verticalAlign=top;" parent="1" vertex="1">
          <mxGeometry x="1510" y="150" width="270" height="60" as="geometry" />
        </mxCell>
        <mxCell id="zaHt_wBv9F0KEou9O8MJ-1" value="個人" style="text;html=1;align=center;verticalAlign=middle;resizable=0;points=[];autosize=1;strokeColor=none;fillColor=none;" vertex="1" parent="1">
          <mxGeometry x="1525" y="830" width="50" height="30" as="geometry" />
        </mxCell>
        <mxCell id="zaHt_wBv9F0KEou9O8MJ-4" style="edgeStyle=orthogonalEdgeStyle;rounded=0;orthogonalLoop=1;jettySize=auto;html=1;" edge="1" parent="1" source="zaHt_wBv9F0KEou9O8MJ-2" target="zaHt_wBv9F0KEou9O8MJ-3">
          <mxGeometry relative="1" as="geometry" />
        </mxCell>
        <mxCell id="zaHt_wBv9F0KEou9O8MJ-2" value="システム" style="ellipse;whiteSpace=wrap;html=1;" vertex="1" parent="1">
          <mxGeometry x="1432" y="-867" width="120" height="80" as="geometry" />
        </mxCell>
        <mxCell id="zaHt_wBv9F0KEou9O8MJ-10" style="edgeStyle=orthogonalEdgeStyle;rounded=0;orthogonalLoop=1;jettySize=auto;html=1;" edge="1" parent="1" source="zaHt_wBv9F0KEou9O8MJ-3" target="zaHt_wBv9F0KEou9O8MJ-8">
          <mxGeometry relative="1" as="geometry" />
        </mxCell>
        <mxCell id="zaHt_wBv9F0KEou9O8MJ-11" style="rounded=0;orthogonalLoop=1;jettySize=auto;html=1;" edge="1" parent="1" source="zaHt_wBv9F0KEou9O8MJ-3" target="zaHt_wBv9F0KEou9O8MJ-7">
          <mxGeometry relative="1" as="geometry" />
        </mxCell>
        <mxCell id="zaHt_wBv9F0KEou9O8MJ-12" style="rounded=0;orthogonalLoop=1;jettySize=auto;html=1;" edge="1" parent="1" source="zaHt_wBv9F0KEou9O8MJ-3" target="zaHt_wBv9F0KEou9O8MJ-6">
          <mxGeometry relative="1" as="geometry" />
        </mxCell>
        <mxCell id="zaHt_wBv9F0KEou9O8MJ-13" style="edgeStyle=orthogonalEdgeStyle;rounded=0;orthogonalLoop=1;jettySize=auto;html=1;" edge="1" parent="1" source="zaHt_wBv9F0KEou9O8MJ-3" target="zaHt_wBv9F0KEou9O8MJ-9">
          <mxGeometry relative="1" as="geometry" />
        </mxCell>
        <mxCell id="zaHt_wBv9F0KEou9O8MJ-3" value="ツアー会社、山協会" style="rounded=1;whiteSpace=wrap;html=1;" vertex="1" parent="1">
          <mxGeometry x="1424" y="-720" width="136" height="60" as="geometry" />
        </mxCell>
        <mxCell id="zaHt_wBv9F0KEou9O8MJ-5" value="丸々売る" style="text;html=1;align=center;verticalAlign=middle;resizable=0;points=[];autosize=1;strokeColor=none;fillColor=none;" vertex="1" parent="1">
          <mxGeometry x="1490" y="-770" width="70" height="30" as="geometry" />
        </mxCell>
        <mxCell id="zaHt_wBv9F0KEou9O8MJ-6" value="スキー場" style="rounded=1;whiteSpace=wrap;html=1;" vertex="1" parent="1">
          <mxGeometry x="1525" y="-570" width="120" height="60" as="geometry" />
        </mxCell>
        <mxCell id="zaHt_wBv9F0KEou9O8MJ-7" value="会社" style="rounded=1;whiteSpace=wrap;html=1;" vertex="1" parent="1">
          <mxGeometry x="1330" y="-570" width="120" height="60" as="geometry" />
        </mxCell>
        <mxCell id="zaHt_wBv9F0KEou9O8MJ-8" value="会社" style="rounded=1;whiteSpace=wrap;html=1;" vertex="1" parent="1">
          <mxGeometry x="1200" y="-570" width="120" height="60" as="geometry" />
        </mxCell>
        <mxCell id="zaHt_wBv9F0KEou9O8MJ-9" value="スキー場" style="rounded=1;whiteSpace=wrap;html=1;" vertex="1" parent="1">
          <mxGeometry x="1655" y="-570" width="120" height="60" as="geometry" />
        </mxCell>
        <mxCell id="zaHt_wBv9F0KEou9O8MJ-22" value="" style="group" vertex="1" connectable="0" parent="1">
          <mxGeometry x="1100" y="-480" width="580" height="70" as="geometry" />
        </mxCell>
        <mxCell id="zaHt_wBv9F0KEou9O8MJ-14" value="" style="ellipse;whiteSpace=wrap;html=1;aspect=fixed;" vertex="1" parent="zaHt_wBv9F0KEou9O8MJ-22">
          <mxGeometry x="170" y="-30" width="50" height="50" as="geometry" />
        </mxCell>
        <mxCell id="zaHt_wBv9F0KEou9O8MJ-15" value="" style="ellipse;whiteSpace=wrap;html=1;aspect=fixed;" vertex="1" parent="zaHt_wBv9F0KEou9O8MJ-22">
          <mxGeometry x="120" y="-30" width="50" height="50" as="geometry" />
        </mxCell>
        <mxCell id="zaHt_wBv9F0KEou9O8MJ-16" value="" style="ellipse;whiteSpace=wrap;html=1;aspect=fixed;" vertex="1" parent="zaHt_wBv9F0KEou9O8MJ-22">
          <mxGeometry x="70" y="-30" width="50" height="50" as="geometry" />
        </mxCell>
        <mxCell id="zaHt_wBv9F0KEou9O8MJ-17" value="" style="ellipse;whiteSpace=wrap;html=1;aspect=fixed;" vertex="1" parent="zaHt_wBv9F0KEou9O8MJ-22">
          <mxGeometry x="20" y="-30" width="50" height="50" as="geometry" />
        </mxCell>
        <mxCell id="zaHt_wBv9F0KEou9O8MJ-18" value="" style="ellipse;whiteSpace=wrap;html=1;aspect=fixed;" vertex="1" parent="zaHt_wBv9F0KEou9O8MJ-22">
          <mxGeometry x="370" y="-30" width="50" height="50" as="geometry" />
        </mxCell>
        <mxCell id="zaHt_wBv9F0KEou9O8MJ-19" value="" style="ellipse;whiteSpace=wrap;html=1;aspect=fixed;" vertex="1" parent="zaHt_wBv9F0KEou9O8MJ-22">
          <mxGeometry x="320" y="-30" width="50" height="50" as="geometry" />
        </mxCell>
        <mxCell id="zaHt_wBv9F0KEou9O8MJ-20" value="" style="ellipse;whiteSpace=wrap;html=1;aspect=fixed;" vertex="1" parent="zaHt_wBv9F0KEou9O8MJ-22">
          <mxGeometry x="270" y="-30" width="50" height="50" as="geometry" />
        </mxCell>
        <mxCell id="zaHt_wBv9F0KEou9O8MJ-21" value="" style="ellipse;whiteSpace=wrap;html=1;aspect=fixed;" vertex="1" parent="zaHt_wBv9F0KEou9O8MJ-22">
          <mxGeometry x="220" y="-30" width="50" height="50" as="geometry" />
        </mxCell>
        <mxCell id="zaHt_wBv9F0KEou9O8MJ-48" value="システム開発" style="ellipse;whiteSpace=wrap;html=1;" vertex="1" parent="1">
          <mxGeometry x="1460" y="-930" width="100" height="80" as="geometry" />
        </mxCell>
        <mxCell id="zaHt_wBv9F0KEou9O8MJ-60" style="rounded=0;orthogonalLoop=1;jettySize=auto;html=1;" edge="1" parent="1" source="zaHt_wBv9F0KEou9O8MJ-49" target="zaHt_wBv9F0KEou9O8MJ-59">
          <mxGeometry relative="1" as="geometry" />
        </mxCell>
        <mxCell id="zaHt_wBv9F0KEou9O8MJ-49" value="システム　　　　" style="ellipse;whiteSpace=wrap;html=1;" vertex="1" parent="1">
          <mxGeometry x="1585" y="-1440" width="180" height="80" as="geometry" />
        </mxCell>
        <mxCell id="zaHt_wBv9F0KEou9O8MJ-50" value="システム開発者" style="ellipse;whiteSpace=wrap;html=1;" vertex="1" parent="1">
          <mxGeometry x="1620" y="-1500" width="120" height="80" as="geometry" />
        </mxCell>
        <mxCell id="zaHt_wBv9F0KEou9O8MJ-52" style="edgeStyle=orthogonalEdgeStyle;rounded=0;orthogonalLoop=1;jettySize=auto;html=1;" edge="1" parent="1" source="zaHt_wBv9F0KEou9O8MJ-51" target="zaHt_wBv9F0KEou9O8MJ-53">
          <mxGeometry relative="1" as="geometry">
            <mxPoint x="1710" y="-1280" as="targetPoint" />
          </mxGeometry>
        </mxCell>
        <mxCell id="zaHt_wBv9F0KEou9O8MJ-81" style="rounded=0;orthogonalLoop=1;jettySize=auto;html=1;" edge="1" parent="1" source="zaHt_wBv9F0KEou9O8MJ-51" target="zaHt_wBv9F0KEou9O8MJ-71">
          <mxGeometry relative="1" as="geometry" />
        </mxCell>
        <mxCell id="zaHt_wBv9F0KEou9O8MJ-84" style="rounded=0;orthogonalLoop=1;jettySize=auto;html=1;" edge="1" parent="1" source="zaHt_wBv9F0KEou9O8MJ-51" target="zaHt_wBv9F0KEou9O8MJ-83">
          <mxGeometry relative="1" as="geometry" />
        </mxCell>
        <mxCell id="zaHt_wBv9F0KEou9O8MJ-85" style="rounded=0;orthogonalLoop=1;jettySize=auto;html=1;" edge="1" parent="1" source="zaHt_wBv9F0KEou9O8MJ-51" target="zaHt_wBv9F0KEou9O8MJ-82">
          <mxGeometry relative="1" as="geometry" />
        </mxCell>
        <mxCell id="zaHt_wBv9F0KEou9O8MJ-51" value="" style="ellipse;whiteSpace=wrap;html=1;" vertex="1" parent="1">
          <mxGeometry x="1680" y="-1420" width="60" height="50" as="geometry" />
        </mxCell>
        <mxCell id="zaHt_wBv9F0KEou9O8MJ-53" value="ツアー会社" style="rounded=1;whiteSpace=wrap;html=1;" vertex="1" parent="1">
          <mxGeometry x="1650" y="-1220" width="120" height="60" as="geometry" />
        </mxCell>
        <mxCell id="zaHt_wBv9F0KEou9O8MJ-54" value="３" style="rounded=1;whiteSpace=wrap;html=1;" vertex="1" parent="1">
          <mxGeometry x="1770.5" y="-1160" width="120" height="60" as="geometry" />
        </mxCell>
        <mxCell id="zaHt_wBv9F0KEou9O8MJ-55" value="２" style="rounded=1;whiteSpace=wrap;html=1;" vertex="1" parent="1">
          <mxGeometry x="1650.5" y="-1160" width="120" height="60" as="geometry" />
        </mxCell>
        <mxCell id="zaHt_wBv9F0KEou9O8MJ-56" value="イベント１" style="rounded=1;whiteSpace=wrap;html=1;" vertex="1" parent="1">
          <mxGeometry x="1529.5" y="-1160" width="120" height="60" as="geometry" />
        </mxCell>
        <mxCell id="zaHt_wBv9F0KEou9O8MJ-57" value="権限を一部売る" style="text;html=1;align=center;verticalAlign=middle;resizable=0;points=[];autosize=1;strokeColor=none;fillColor=none;" vertex="1" parent="1">
          <mxGeometry x="1700" y="-1332" width="110" height="30" as="geometry" />
        </mxCell>
        <mxCell id="zaHt_wBv9F0KEou9O8MJ-58" value="ユーザー" style="ellipse;whiteSpace=wrap;html=1;" vertex="1" parent="1">
          <mxGeometry x="1650.5" y="-1060" width="120" height="80" as="geometry" />
        </mxCell>
        <mxCell id="zaHt_wBv9F0KEou9O8MJ-59" value="ユーザー" style="ellipse;whiteSpace=wrap;html=1;" vertex="1" parent="1">
          <mxGeometry x="1385" y="-1340" width="120" height="80" as="geometry" />
        </mxCell>
        <mxCell id="zaHt_wBv9F0KEou9O8MJ-61" value="ウェブに公開" style="text;html=1;align=center;verticalAlign=middle;resizable=0;points=[];autosize=1;strokeColor=none;fillColor=none;" vertex="1" parent="1">
          <mxGeometry x="1470" y="-1382" width="100" height="30" as="geometry" />
        </mxCell>
        <mxCell id="zaHt_wBv9F0KEou9O8MJ-62" value="ユーザー" style="ellipse;whiteSpace=wrap;html=1;" vertex="1" parent="1">
          <mxGeometry x="1770.5" y="-1060" width="120" height="80" as="geometry" />
        </mxCell>
        <mxCell id="zaHt_wBv9F0KEou9O8MJ-63" value="ユーザー" style="ellipse;whiteSpace=wrap;html=1;" vertex="1" parent="1">
          <mxGeometry x="1529.5" y="-1060" width="120" height="80" as="geometry" />
        </mxCell>
        <mxCell id="zaHt_wBv9F0KEou9O8MJ-64" value="個人のユーザーの異常管理&lt;br&gt;登録ユーザー・企業の管理" style="rounded=0;whiteSpace=wrap;html=1;" vertex="1" parent="1">
          <mxGeometry x="1410" y="-1500" width="206" height="60" as="geometry" />
        </mxCell>
        <mxCell id="zaHt_wBv9F0KEou9O8MJ-65" value="イベント作成&lt;br&gt;イベント参加ユーザーの管理" style="rounded=0;whiteSpace=wrap;html=1;" vertex="1" parent="1">
          <mxGeometry x="1720" y="-1290" width="184.45" height="60" as="geometry" />
        </mxCell>
        <mxCell id="zaHt_wBv9F0KEou9O8MJ-66" value="イベント管理者" style="rounded=1;whiteSpace=wrap;html=1;" vertex="1" parent="1">
          <mxGeometry x="1529.5" y="-1100" width="120" height="40" as="geometry" />
        </mxCell>
        <mxCell id="zaHt_wBv9F0KEou9O8MJ-69" value="イベント管理者" style="rounded=1;whiteSpace=wrap;html=1;" vertex="1" parent="1">
          <mxGeometry x="1650.5" y="-1100" width="120" height="40" as="geometry" />
        </mxCell>
        <mxCell id="zaHt_wBv9F0KEou9O8MJ-70" value="イベント管理者" style="rounded=1;whiteSpace=wrap;html=1;" vertex="1" parent="1">
          <mxGeometry x="1770.5" y="-1100" width="120" height="40" as="geometry" />
        </mxCell>
        <mxCell id="zaHt_wBv9F0KEou9O8MJ-71" value="ツアー会社" style="rounded=1;whiteSpace=wrap;html=1;" vertex="1" parent="1">
          <mxGeometry x="1990.5" y="-1270" width="120" height="60" as="geometry" />
        </mxCell>
        <mxCell id="zaHt_wBv9F0KEou9O8MJ-73" value="２" style="rounded=1;whiteSpace=wrap;html=1;" vertex="1" parent="1">
          <mxGeometry x="2061" y="-1210" width="120" height="60" as="geometry" />
        </mxCell>
        <mxCell id="zaHt_wBv9F0KEou9O8MJ-74" value="イベント１" style="rounded=1;whiteSpace=wrap;html=1;" vertex="1" parent="1">
          <mxGeometry x="1940" y="-1210" width="120" height="60" as="geometry" />
        </mxCell>
        <mxCell id="zaHt_wBv9F0KEou9O8MJ-75" value="ユーザー" style="ellipse;whiteSpace=wrap;html=1;" vertex="1" parent="1">
          <mxGeometry x="2061" y="-1110" width="120" height="80" as="geometry" />
        </mxCell>
        <mxCell id="zaHt_wBv9F0KEou9O8MJ-77" value="ユーザー" style="ellipse;whiteSpace=wrap;html=1;" vertex="1" parent="1">
          <mxGeometry x="1941" y="-1110" width="120" height="80" as="geometry" />
        </mxCell>
        <mxCell id="zaHt_wBv9F0KEou9O8MJ-82" value="スキー" style="rounded=1;whiteSpace=wrap;html=1;" vertex="1" parent="1">
          <mxGeometry x="2076" y="-1520" width="120" height="60" as="geometry" />
        </mxCell>
        <mxCell id="zaHt_wBv9F0KEou9O8MJ-83" value="ツアー会社" style="rounded=1;whiteSpace=wrap;html=1;" vertex="1" parent="1">
          <mxGeometry x="1785" y="-1600" width="120" height="60" as="geometry" />
        </mxCell>
        <mxCell id="zaHt_wBv9F0KEou9O8MJ-86" value="イベント管理者" style="rounded=1;whiteSpace=wrap;html=1;" vertex="1" parent="1">
          <mxGeometry x="1941" y="-1150" width="120" height="40" as="geometry" />
        </mxCell>
        <mxCell id="zaHt_wBv9F0KEou9O8MJ-87" value="イベント管理者" style="rounded=1;whiteSpace=wrap;html=1;" vertex="1" parent="1">
          <mxGeometry x="2061" y="-1150" width="120" height="40" as="geometry" />
        </mxCell>
        <mxCell id="zaHt_wBv9F0KEou9O8MJ-88" value="イベント１" style="rounded=1;whiteSpace=wrap;html=1;" vertex="1" parent="1">
          <mxGeometry x="2075" y="-1460" width="120" height="60" as="geometry" />
        </mxCell>
        <mxCell id="zaHt_wBv9F0KEou9O8MJ-89" value="ユーザー" style="ellipse;whiteSpace=wrap;html=1;" vertex="1" parent="1">
          <mxGeometry x="2076.1099999999997" y="-1400" width="120" height="80" as="geometry" />
        </mxCell>
      </root>
    </mxGraphModel>
  </diagram>
</mxfile>
